Coordinates
version=1
nRows=60
nColumns=12
inDegrees=yes

Units are S.I. units (second, meters, Newtons, ...)
Angles are in degrees

endheader
time	SC_y	SC_z	SC_x	AC_y	AC_z	AC_x	GH_y	GH_z	GH_yy	EL_x	PS_y
       0.0              -40.98          8.791          62.08          63.51         -3.406         -15.02          134.8          28.64          92.09          132.2          72.13
   0.03015              -40.98          8.792          62.07          63.51         -3.408         -15.01          134.8          28.63          92.07          132.2          72.13
   0.06031              -40.97          8.793          62.07           63.5         -3.411         -15.01          134.7          28.62          92.05          132.2          72.13
   0.09046              -40.97          8.793          62.06           63.5         -3.413         -15.01          134.7          28.62          92.03          132.2          72.12
    0.1206              -40.97          8.794          62.06           63.5         -3.416          -15.0          134.7          28.61          92.01          132.2          72.12
    0.1508              -40.97          8.795          62.05           63.5         -3.419          -15.0          134.6           28.6          91.98          132.2          72.12
    0.1809              -40.96          8.796          62.04          63.49         -3.422         -14.99          134.6          28.59          91.96          132.1          72.11
    0.2111              -40.96          8.797          62.03          63.49         -3.425         -14.99          134.6          28.58          91.93          132.1          72.11
    0.2412              -40.96          8.798          62.03          63.49         -3.429         -14.98          134.5          28.57           91.9          132.1           72.1
    0.2714              -40.95          8.799          62.02          63.48         -3.433         -14.98          134.5          28.56          91.86          132.1           72.1
    0.3015              -40.95          8.801          62.01          63.48         -3.437         -14.97          134.4          28.55          91.83          132.1          72.09
    0.3317              -40.94          8.802           62.0          63.48         -3.441         -14.96          134.4          28.53          91.79          132.1          72.09
    0.3618              -40.94          8.803          61.99          63.47         -3.446         -14.96          134.3          28.52          91.75          132.1          72.08
     0.392              -40.93          8.805          61.97          63.47         -3.451         -14.95          134.3           28.5          91.71          132.0          72.07
    0.4221              -40.93          8.807          61.96          63.46         -3.456         -14.94          134.2          28.49          91.66          132.0          72.06
    0.4523              -40.92          8.809          61.95          63.46         -3.462         -14.93          134.1          28.47          91.61          132.0          72.06
    0.4825              -40.92          8.811          61.93          63.45         -3.469         -14.92          134.1          28.45          91.55          132.0          72.05
    0.5126              -40.91          8.813          61.92          63.44         -3.476         -14.91          134.0          28.43          91.49          131.9          72.04
    0.5428               -40.9          8.815           61.9          63.44         -3.484          -14.9          133.9           28.4          91.42          131.9          72.03
    0.5729              -40.89          8.818          61.88          63.43         -3.492         -14.88          133.8          28.38          91.35          131.9          72.01
    0.6031              -40.89          8.821          61.86          63.42         -3.501         -14.87          133.7          28.35          91.27          131.8           72.0
    0.6332              -40.88          8.824          61.83          63.41         -3.512         -14.85          133.6          28.32          91.18          131.8          71.99
    0.6634              -40.86          8.827          61.81           63.4         -3.523         -14.83          133.4          28.28          91.08          131.8          71.97
    0.6935              -40.85          8.831          61.78          63.39         -3.535         -14.81          133.3          28.24          90.97          131.7          71.96
    0.7237              -40.84          8.836          61.75          63.38         -3.549         -14.79          133.1           28.2          90.85          131.7          71.94
    0.7538              -40.82           8.84          61.71          63.36         -3.565         -14.77          133.0          28.15          90.72          131.6          71.91
     0.784              -40.81          8.846          61.67          63.34         -3.582         -14.74          132.8           28.1          90.57          131.5          71.89
    0.8141              -40.79          8.852          61.62          63.33         -3.602         -14.71          132.5          28.04           90.4          131.5          71.86
    0.8443              -40.77          8.859          61.57          63.31         -3.624         -14.68          132.3          27.97          90.21          131.4          71.83
    0.8744              -40.74          8.867          61.52          63.28         -3.649         -14.64          132.0           27.9          89.99          131.3           71.8
    0.9046              -40.72          8.876          61.45          63.26         -3.677         -14.59          131.7          27.81          89.74          131.2          71.76
    0.9348              -40.68          8.886          61.37          63.23          -3.71         -14.54          131.3          27.71          89.45          131.0          71.71
    0.9649              -40.65          8.898          61.29          63.19         -3.748         -14.48          130.8          27.59          89.13          130.9          71.66
    0.9951               -40.6          8.911          61.18          63.15         -3.792         -14.41          130.3          27.46          88.74          130.7           71.6
     1.025              -40.55          8.927          61.06           63.1         -3.844         -14.33          129.7           27.3           88.3          130.5          71.53
     1.055               -40.5          8.946          60.92          63.05         -3.905         -14.24          129.0          27.12          87.77          130.3          71.45
     1.086              -40.43          8.969          60.76          62.98         -3.977         -14.12          128.2          26.89          87.14          130.0          71.35
     1.116              -40.34          8.996          60.55           62.9         -4.063         -13.99          127.2          26.63          86.39          129.7          71.23
     1.146              -40.24          9.028          60.31           62.8         -4.168         -13.82          126.0          26.31          85.48          129.3          71.08
     1.176              -40.12          9.068          60.01          62.68         -4.296         -13.62          124.5          25.92          84.37          128.8          70.91
     1.206              -39.97          9.117          59.65          62.54         -4.454         -13.38          122.7          25.44           83.0          128.2          70.69
     1.236              -39.77          9.178          59.19          62.35         -4.651         -13.07          120.4          24.83          81.29          127.4          70.42
     1.266              -39.54          9.255          58.62          62.12         -4.899         -12.68          117.5          24.08          79.14          126.5          70.08
     1.297              -39.23          9.353          57.89          61.83         -5.214         -12.19          113.9          23.11          76.41          125.2          69.64
     1.327              -38.84          9.479          56.95          61.45         -5.618         -11.56          109.2          21.88          72.91          123.7          69.09
     1.357              -38.34           9.64          55.75          60.97         -6.136         -10.75          103.3           20.3          68.41          121.7          68.38
     1.387               -37.7          9.846          54.22          60.36         -6.798          -9.71          95.61          18.28          62.67          119.2          67.46
     1.417               -36.9           10.1          52.29          59.59          -7.63         -8.408           86.0          15.73          55.46          116.0          66.32
     1.447              -35.92          10.42          49.94          58.65         -8.643         -6.821          74.29          12.64          46.66          112.1          64.92
     1.478              -34.78          10.79          47.21          57.55         -9.819         -4.982          60.71          9.045          36.47          107.5          63.31
     1.508              -33.55          11.18          44.26          56.37         -11.09         -2.991          46.02          5.157          25.43          102.6          61.55
     1.538              -32.33          11.58          41.31          55.19         -12.36        -0.9994          31.32          1.269          14.39          97.75           59.8
     1.568              -31.19          11.94          38.59           54.1         -13.54         0.8397          17.74         -2.322          4.201          93.22          58.18
     1.598              -30.21          12.26          36.24          53.16         -14.55          2.426           6.03          -5.42         -4.593          89.32          56.79
     1.628              -29.41          12.52          34.31          52.39         -15.38          3.728         -3.581         -7.962         -11.81          86.12          55.64
     1.658              -28.77          12.72          32.78          51.77         -16.05          4.764         -11.22         -9.983         -17.55          83.58          54.73
     1.689              -28.27          12.88          31.57          51.29         -16.56          5.574         -17.21         -11.57         -22.04          81.59          54.02
     1.719              -27.88          13.01          30.64          50.92         -16.97          6.206         -21.87          -12.8         -25.54          80.03          53.46
     1.749              -27.57          13.11          29.91          50.62         -17.28            6.7         -25.51         -13.76         -28.28          78.82          53.03
     1.779              -27.33          13.18          29.33          50.39         -17.53          7.088         -28.38         -14.52         -30.43          77.87          52.69
